<?xml version="1.0" encoding="UTF-8" standalone="no"?>
<!-- Created with Inkscape (http://www.inkscape.org/) -->

<svg
   width="210mm"
   height="297mm"
   viewBox="0 0 210 297"
   version="1.1"
   id="svg5"
   inkscape:version="1.1 (c68e22c387, 2021-05-23)"
   sodipodi:docname="flat.svg"
   xmlns:inkscape="http://www.inkscape.org/namespaces/inkscape"
   xmlns:sodipodi="http://sodipodi.sourceforge.net/DTD/sodipodi-0.dtd"
   xmlns="http://www.w3.org/2000/svg"
   xmlns:svg="http://www.w3.org/2000/svg">
  <sodipodi:namedview
     id="namedview7"
     pagecolor="#ffffff"
     bordercolor="#666666"
     borderopacity="1.0"
     inkscape:pageshadow="2"
     inkscape:pageopacity="0.0"
     inkscape:pagecheckerboard="0"
     inkscape:document-units="mm"
     showgrid="false"
     inkscape:zoom="12.443434"
     inkscape:cx="297.62684"
     inkscape:cy="-6.1478204"
     inkscape:window-width="2560"
     inkscape:window-height="1361"
     inkscape:window-x="2391"
     inkscape:window-y="-9"
     inkscape:window-maximized="1"
     inkscape:current-layer="layer1" />
  <defs
     id="defs2" />
  <g
     inkscape:label="Слой 1"
     inkscape:groupmode="layer"
     id="layer1">
    <rect
       style="fill:#000080;stroke:#140000;stroke-width:0.0585343;stroke-miterlimit:4;stroke-dasharray:none"
       id="p1"
       width="4.9229889"
       height="0.66052896"
       x="70.221664"
       y="8.5408325">
      <desc
         id="desc1845">10000</desc>
      <title
         id="title1843">platform</title>
    </rect>
    <rect
       style="fill:#000080;stroke:#140000;stroke-width:0.060408;stroke-miterlimit:4;stroke-dasharray:none"
       id="p2"
       width="4.9211154"
       height="0.70376062"
       x="105.04306"
       y="8.6818027">
      <desc
         id="desc1845-9">10000</desc>
      <title
         id="title1843-4">platform</title>
    </rect>
    <ellipse
       style="fill:#000080;stroke:#140000;stroke-width:0.01"
       id="path1350"
       cx="72.49575"
       cy="2.1417525"
       rx="0.33077288"
       ry="0.29318506">
      <title
         id="title1616">ship</title>
    </ellipse>
    <ellipse
       style="fill:#000080;stroke:#140000;stroke-width:0.01"
       id="1"
       cx="67.041649"
       cy="8.5700254"
       rx="0.24807966"
       ry="0.2180094">
      <title
         id="title1620">cargo</title>
    </ellipse>
    <rect
       style="fill:none;stroke:#140000;stroke-width:0.0145409"
       id="rect941"
       width="138.10039"
       height="84.794998"
       x="34.498837"
       y="-54.066528">
      <title
         id="title1125">bounds</title>
    </rect>
    <path
       style="fill:none;stroke:#000000;stroke-width:0.264583px;stroke-linecap:butt;stroke-linejoin:miter;stroke-opacity:1"
       d="M 65.776739,9.9085052 66.350837,9.6852448 66.978093,9.5045103 67.41398,9.35567 67.945555,9.2493556 68.64723,9.1217783 69.263852,9.015464 h 0.595363 l 0.499676,-0.042526 5.687822,-0.021262 1.137565,-0.063789 0.765464,-0.5528353 1.360826,-1.1481958 0.765463,-1.4033506 1.148196,-2.2963917 0.510308,-2.3389174 0.127579,-1.40335054 1.148194,-2.97680406 1.190723,-0.5953609 1.360823,-0.2976803 1.573453,-0.5528352 2.12629,0.3827319 0.935567,-0.2551546 0.595362,-0.2126287 1.10567,-0.042526 0.807988,0.5103093 0.765466,0.1275773 0.89304,-0.170103 0.552836,-0.3402062 0.89304,-0.085051 1.10567,0.4677833 1.148197,0.2976806 1.020617,0.8505153 0.680413,-0.2126287 0.978097,0.2126287 0.80799,0.1701033 0.42525,0.5528349 0.55284,1.44587633 0.0425,2.50902057 0.55283,1.4458762 v 1.1481959 l -0.29768,0.9780929 0.34021,0.8505155 0.085,1.2332473 -0.12758,0.8930412 0.80799,0.6804125 0.29768,0.340206 7.05928,0.1275774 1.40335,0.5528349 0.85051,0.1701033 0.0851,1.7860824 0.46779,2.679124 0.63788,0.893041 -0.0851,1.275773 0.76547,1.10567 1.10567,0.170103 1.74355,0.425258 1.1482,-0.382732 1.3183,-0.170103 0.76546,-1.318299 1.02062,-1.148196 1.44588,-1.40335 0.21263,-1.530928 1.27577,-1.786083 1.23325,-0.850515 1.10567,-1.9987115 0.51031,-1.4884018 0.42526,-1.5734538 0.76546,-0.552835 0.55283,-1.2332475 0.55284,-1.91365971 0.97809,-1.2332474 1.27578,-1.61597939 0.5103,-0.8079896 1.1482,-0.7229382 1.95619,-2.2963918 2.46649,-1.7435568 0.97809,-1.4033505 0.76547,-2.168814 1.19072,-1.190722 1.82861,-0.425257 1.78608,-0.80799 1.57345,-1.998712 0.72294,-0.59536 1.06314,-0.51031 0.85052,-1.40335 1.02062,-1.658505 1.14819,-0.680413 1.99872,-1.786082 1.36082,-1.148196 1.02062,-0.765464 2.29639,-0.467783 1.19072,-0.595361 1.27578,-0.255155 3.31701,-0.212629 2.38144,0.637887 1.61598,-0.04253 1.44587,0.382732 1.44588,0.340206 1.82861,0.382732 1.6585,0.212629 0.0425,54.050256 -142.503864,-0.04252 0.637887,-57.66495 0.850514,0.08505 1.020619,0.80799 0.680413,1.445876 0.29768,1.615979 0.595361,1.360825 1.148196,2.338918 0.127577,2.041237 0.04253,1.573454 0.340207,1.020618 0.340206,0.595361 0.382731,0.978093 0.127576,2.083762 0.255157,1.190722 0.467783,1.275773 0.04253,1.5309279 0.467784,1.4884021 0.552833,0.7229382 0.637887,1.10567 0.255156,1.4884021 0.04252,1.5309278 0.170103,0.8505155 0.595363,0.97809277 0.38273,0.55283503 0.935567,1.0631444 0.935567,0.4252576 0.680413,0.5953609 0.08505,0.8505156 -0.12758,1.3608245 0.297683,0.6378866 1.020617,0.7229383 1.40335,0.2976803 2.168816,0.1701032 1.956186,-0.1275773 2.083761,-0.2126289 1.403352,0.4252576 1.360824,0.5103093 0.08505,0.5103093 0.68041,1.6159792 1.148197,0.297681 0.722939,1.063144 0.552834,1.10567 0.08505,1.063144 1.020617,1.233248 0.212629,0.850515 0.297681,0.80799 0.170103,1.063144 0.722937,0.510309 0.850516,0.08505 1.360824,-0.595361 0.978093,-0.722938 0.51031,-0.978093 -0.08505,-1.743556 -0.340206,-1.701031 -0.04253,-1.530928 z"
       id="path1109" />
  </g>
</svg>
