<?xml version="1.0" encoding="UTF-8" standalone="no"?>
<!-- Created with Inkscape (http://www.inkscape.org/) -->

<svg
   width="210mm"
   height="297mm"
   viewBox="0 0 210 297"
   version="1.1"
   id="svg5"
   inkscape:version="1.1 (c68e22c387, 2021-05-23)"
   sodipodi:docname="long_trip.svg"
   xmlns:inkscape="http://www.inkscape.org/namespaces/inkscape"
   xmlns:sodipodi="http://sodipodi.sourceforge.net/DTD/sodipodi-0.dtd"
   xmlns="http://www.w3.org/2000/svg"
   xmlns:svg="http://www.w3.org/2000/svg">
  <sodipodi:namedview
     id="namedview7"
     pagecolor="#ffffff"
     bordercolor="#666666"
     borderopacity="1.0"
     inkscape:pageshadow="2"
     inkscape:pageopacity="0.0"
     inkscape:pagecheckerboard="0"
     inkscape:document-units="mm"
     showgrid="false"
     inkscape:zoom="35.195348"
     inkscape:cx="792.81785"
     inkscape:cy="-324.43208"
     inkscape:window-width="2560"
     inkscape:window-height="1361"
     inkscape:window-x="2391"
     inkscape:window-y="-9"
     inkscape:window-maximized="1"
     inkscape:current-layer="layer1" />
  <defs
     id="defs2" />
  <g
     inkscape:label="Слой 1"
     inkscape:groupmode="layer"
     id="layer1">
    <rect
       style="fill:#000080;stroke:#140000;stroke-width:0.0585343;stroke-miterlimit:4;stroke-dasharray:none"
       id="p1"
       width="4.9229889"
       height="0.66052896"
       x="69.721069"
       y="8.9821911">
      <desc
         id="desc1845">10000</desc>
      <title
         id="title1843">platform</title>
    </rect>
    <ellipse
       style="fill:#000080;stroke:#140000;stroke-width:0.01"
       id="path1350"
       cx="72.485123"
       cy="3.3962629"
       rx="0.33077288"
       ry="0.29318506">
      <title
         id="title1616">ship</title>
    </ellipse>
    <rect
       style="fill:none;stroke:#140000;stroke-width:0.026596"
       id="rect941"
       width="251.48695"
       height="155.77689"
       x="46.679031"
       y="-125.05215">
      <title
         id="title1125">bounds</title>
    </rect>
    <path
       style="fill:none;stroke:#000000;stroke-width:0.264583px;stroke-linecap:butt;stroke-linejoin:miter;stroke-opacity:1"
       d="m 75.144653,9.2013617 5.443648,0.060279 1.804215,-0.3007024 1.02239,-0.4209838 1.202812,-0.7818268 1.323091,-1.0825295 0.481124,-1.0825292 1.082529,-1.6839348 0.06014,-0.9622483 1.202812,-1.3230916 0.120279,-1.56365362 0.481126,-1.08252938 1.022387,-1.5035131 1.443374,-1.5636535 1.02239,-0.1202812 h 1.383231 l 1.202809,-0.360843 0.541266,0.6615457 1.262951,1.4433725 0.240562,1.86435622 0.06014,1.74407518 0.300704,1.2028105 0.541263,2.165059 0.240562,0.8419671 1.08253,0.7818268 0.240562,2.2251995 -0.300702,1.744075 0.721682,1.683935 0.54127,1.864356 v 1.262951 l -0.18042,1.323091 0.54126,1.503513 -0.0601,1.022389 0.3007,1.623795 0.60141,0.902107 0.54126,1.563654 1.14267,1.14267 0.96225,0.481124 8.2994,0.180422 1.14266,-1.262951 0.78183,-2.044778 1.44337,-1.924497 V 17.20019 l 0.18043,-1.503513 1.02239,-5.472788 1.02238,-1.5035129 V 5.9539119 l 1.38324,-1.8643563 0.72168,-3.7287124 -0.18042,-1.9846372 0.54127,-2.3454805 1.14266,-2.4657613 0.72169,-2.9468858 0.84197,-1.4433724 2.28534,-6.194474 1.02239,-2.766464 0.66154,-1.563654 1.74408,-1.262951 1.38323,-0.781827 1.68394,-0.300702 1.74407,0.781827 0.96225,2.646183 0.96225,1.924496 0.72168,2.586043 0.12028,2.165059 0.42099,3.187447 -0.54127,3.7287131 0.48113,2.9468855 0.24056,2.5860426 0.0601,3.0070261 0.6014,1.6839346 1.68394,7.5175651 1.08253,3.728713 2.5259,2.586042 2.64618,1.14267 3.36787,1.14267 3.66857,0.300703 3.42802,0.120281 9.08121,-0.06014 3.06717,0.120281 11.48684,0.180422 2.46576,-0.300703 2.46576,-0.841967 1.98464,-1.623794 1.08253,-2.28534 0.36084,-1.924497 -0.0601,-1.563653 -0.66154,-1.8643565 -2.04478,-2.3454804 -2.5259,-0.2405621 -2.34548,0.1202809 -0.66155,0.7818268 -2.46576,-0.7818268 -1.44337,-0.1202809 -1.68394,0.7818268 -3.30773,-0.9622483 -2.46576,-0.1202811 -2.04478,0.7818268 h -4.45039 l -1.50352,1.2028103 -2.5259,-0.9021077 -2.64618,-0.4811241 -2.34548,-1.4433727 -2.40562,-1.9846372 0.48112,-2.2251994 -0.42098,-3.1874478 0.54126,-1.5035132 2.04478,-1.2028103 0.78183,-1.6839348 2.10492,-0.06014 1.44337,-1.4433727 2.2252,-1.4433725 1.68393,-2.3454811 1.02239,-2.28534 -4.63082,-2.34548 -4.08956,-0.781827 -0.0601,-2.766464 1.80422,-2.34548 3.12731,-1.443373 2.2252,-1.623794 3.48815,-2.886745 3.24759,-0.601406 2.46576,-0.360841 2.04477,1.323091 3.5483,1.26295 h 4.93152 l 2.34548,1.262951 1.74407,4.149696 0.36085,4.149696 0.0601,3.247589 -2.58605,2.586042 -3.24758,2.2251997 -2.5259,1.6237942 -7.63785,-0.6014053 -2.58604,1.3230915 -1.74408,3.6084314 0.48112,2.22519938 3.48815,1.80421572 3.00703,-0.9622484 h 16.41836 l 7.09659,-5.8336307 2.22519,-1.9244969 1.6238,-1.3832318 -0.3007,-3.7287128 1.80421,-3.307729 -0.24056,-3.007026 -0.66155,-3.36787 0.0601,-1.744075 0.48112,-0.721686 -0.42098,-2.706325 -0.0601,-8.299392 -2.46577,-1.984636 -3.18744,-0.601406 -6.19448,-0.481124 -1.68393,-0.240562 -2.2252,-0.541263 -1.98464,-0.661546 h -4.08956 l -4.69096,-0.420984 0.54127,-3.247588 3.1273,-2.465763 1.20282,-1.563653 1.62379,-2.405621 -0.54126,-1.262951 0.72168,-5.953911 -1.80421,-3.307728 -1.50352,-2.405624 -3.00702,-1.262949 -2.04478,-3.187448 -1.20281,-3.728712 0.24056,-4.690962 1.08253,-2.766465 3.48815,-3.307728 0.66155,-1.262952 5.3525,-0.841965 2.76647,-1.262951 4.33012,-0.420984 4.14969,-0.781828 4.02941,-1.323091 3.42801,0.902107 5.11195,-0.781825 4.99166,0.18042 3.48815,1.262951 3.66858,-0.541263 2.34548,-0.420984 1.62379,1.563653 1.26295,4.330118 0.78183,3.42801 -2.34548,2.766465 -3.96928,-0.420984 -1.14267,-0.420984 -4.69096,0.300702 -4.33011,-0.180422 -7.69799,0.96225 -2.58605,0.180419 -5.95391,2.225201 -2.94688,1.984637 -1.74408,2.946885 -1.38323,3.909134 0.24056,4.510539 0.12028,4.089557 -0.18042,4.811241 0.24056,3.067166 h 15.8771 l 0.3007,-4.510537 -0.0601,-4.991663 -1.98463,-4.149699 -0.90211,-1.323091 1.9245,-3.367868 2.64618,-0.96225 5.41265,-1.202809 4.20983,0.661546 1.38323,-0.06014 3.06717,-0.420984 h 8.96094 l 2.5259,0.360841 1.44337,2.586043 2.28535,2.706325 -0.60141,1.864355 -4.26998,0.240562 -3.78885,0.601405 -5.35251,0.541267 -2.76646,1.744075 -1.98464,3.307728 -0.78182,3.307728 v 1.804215 l 16.53864,-0.06014 h 3.30773 l 0.24056,2.225199 1.56365,1.683935 4.33012,1.02239 2.58604,1.924497 3.24759,3.728712 2.64618,3.728712 1.14268,4.149696 -1.86436,3.668572 -4.4504,0.721687 -6.25461,0.180421 -3.00703,-1.262951 -2.94689,-7.457425 -2.64618,-6.374895 -5.11194,-1.984637 -6.85602,-0.601405 h -4.87139 l -4.81124,1.744075 -2.16506,4.149696 -0.3007,3.969273 -0.24056,4.209839 0.12028,2.40562 2.34548,1.082529 1.62379,-0.481124 10.16375,-0.240562 3.66857,0.420983 2.04478,2.465762 0.60141,3.127307 1.92449,0.962249 1.3231,3.307728 1.50351,1.623794 2.16506,1.503514 1.32309,9.2616407 3.90913,3.48815023 8.84066,0.12028104 5.53293,-0.96224838 4.57068,-0.84196729 3.72871,2.28533987 16.11765,-12.26866717 1.6238,-7.156722 0.66154,-3.848994 -0.3007,-5.893772 -0.48112,-5.051803 1.98464,-3.247589 1.02238,-4.690961 0.84198,-18.463141 -0.42098,-6.735739 -2.82662,-6.194472 -2.04478,-4.390258 -2.5259,-0.721688 -3.12729,-0.180419 -18.64357,-0.120283 0.72169,-2.886744 23.63521,0.420984 2.40564,-2.345481 3.90912,-3.247589 1.86436,-0.841967 9.86305,-16.177803 4.93152,-5.89377 0.9021,-4.33012 0.96226,-0.66154 44.02286,-0.60141 4.81123,568.92935 -446.483235,-26.94294 21.169466,-423.3892952 18.944264,-7.4874952 3.307729,-3.1874475 3.007026,-1.9545671 45.7067979,-29.709418 9.1413596,-4.330118 6.0140524,0.481123 8.9007971,-2.886744 4.089556,0.240562 5.532927,3.60843 6.735738,9.141361 2.646186,12.028104 1.683932,6.495177 3.367871,9.6224839 3.848994,6.9763007 6.735739,4.3301176 3.848991,1.4433727 1.924497,0.4811241 10.807264,0.3312562 0.38273,-0.1382088 3.52964,0.2657861 z"
       id="path1269" />
    <rect
       style="fill:#000080;stroke:#140000;stroke-width:0.0585343;stroke-miterlimit:4;stroke-dasharray:none"
       id="p2"
       width="4.9229889"
       height="0.66052896"
       x="106.27691"
       y="23.95195">
      <desc
         id="desc1845-9">10000</desc>
      <title
         id="title1843-8">platform</title>
    </rect>
    <rect
       style="fill:#000080;stroke:#140000;stroke-width:0.0585343;stroke-miterlimit:4;stroke-dasharray:none"
       id="p3"
       width="4.9229889"
       height="0.66052896"
       x="175.49858"
       y="19.666969">
      <desc
         id="desc1845-1">10000</desc>
      <title
         id="title1843-0">platform</title>
    </rect>
    <rect
       style="fill:#000080;stroke:#140000;stroke-width:0.0585343;stroke-miterlimit:4;stroke-dasharray:none"
       id="p4"
       width="4.9229889"
       height="0.66052896"
       x="172.36278"
       y="0.24158019">
      <desc
         id="desc1845-7">10000</desc>
      <title
         id="title1843-85">platform</title>
    </rect>
    <rect
       style="fill:#000080;stroke:#140000;stroke-width:0.0585343;stroke-miterlimit:4;stroke-dasharray:none"
       id="p5"
       width="4.9229889"
       height="0.66052896"
       x="190.35036"
       y="-47.406296">
      <desc
         id="desc1845-2">10000</desc>
      <title
         id="title1843-6">platform</title>
    </rect>
    <rect
       style="fill:#000080;stroke:#140000;stroke-width:0.0585343;stroke-miterlimit:4;stroke-dasharray:none"
       id="p7"
       width="4.9229889"
       height="0.66052896"
       x="218.07716"
       y="-48.809643">
      <desc
         id="desc1845-8">10000</desc>
      <title
         id="title1843-1">platform</title>
    </rect>
    <rect
       style="fill:#000080;stroke:#140000;stroke-width:0.0585343;stroke-miterlimit:4;stroke-dasharray:none"
       id="p6"
       width="4.9229889"
       height="0.66052896"
       x="210.7202"
       y="-26.44109">
      <desc
         id="desc1845-3">10000</desc>
      <title
         id="title1843-63">platform</title>
    </rect>
    <rect
       style="fill:#000080;stroke:#140000;stroke-width:0.0585343;stroke-miterlimit:4;stroke-dasharray:none"
       id="p8"
       width="4.9229889"
       height="0.66052896"
       x="256.7756"
       y="-81.511963">
      <desc
         id="desc1845-4">10000</desc>
      <title
         id="title1843-7">platform</title>
    </rect>
    <rect
       style="fill:#000080;stroke:#140000;stroke-width:0.0585343;stroke-miterlimit:4;stroke-dasharray:none"
       id="p9"
       width="4.9229889"
       height="0.66052896"
       x="205.68915"
       y="-87.864288">
      <desc
         id="desc1845-4-9">10000</desc>
      <title
         id="title1843-7-8">platform</title>
    </rect>
  </g>
</svg>
