<?xml version="1.0" encoding="UTF-8" standalone="no"?>
<!-- Created with Inkscape (http://www.inkscape.org/) -->

<svg
   width="210mm"
   height="297mm"
   viewBox="0 0 210 297"
   version="1.1"
   id="svg5"
   inkscape:version="1.1 (c68e22c387, 2021-05-23)"
   sodipodi:docname="level1.svg"
   xmlns:inkscape="http://www.inkscape.org/namespaces/inkscape"
   xmlns:sodipodi="http://sodipodi.sourceforge.net/DTD/sodipodi-0.dtd"
   xmlns="http://www.w3.org/2000/svg"
   xmlns:svg="http://www.w3.org/2000/svg">
  <sodipodi:namedview
     id="namedview7"
     pagecolor="#ffffff"
     bordercolor="#666666"
     borderopacity="1.0"
     inkscape:pageshadow="2"
     inkscape:pageopacity="0.0"
     inkscape:pagecheckerboard="0"
     inkscape:document-units="mm"
     showgrid="false"
     inkscape:zoom="1.5554293"
     inkscape:cx="315.24817"
     inkscape:cy="-249.4497"
     inkscape:window-width="2560"
     inkscape:window-height="1361"
     inkscape:window-x="2391"
     inkscape:window-y="-9"
     inkscape:window-maximized="1"
     inkscape:current-layer="layer1"
     inkscape:rotation="-1" />
  <defs
     id="defs2" />
  <g
     inkscape:label="Слой 1"
     inkscape:groupmode="layer"
     id="layer1">
    <path
       style="fill:none;stroke:#000000;stroke-width:0.264583px;stroke-linecap:butt;stroke-linejoin:miter;stroke-opacity:1"
       d="m -0.935567,23.814432 h 9.2706184 l 2.2963916,-2.296391 0.850515,-2.126289 1.956186,-2.466494 0.765464,-2.806702 1.275773,-2.296391 0.595361,-2.9768043 1.701031,-2.4664947 1.275773,-1.1056702 h 1.701031 l 0.425258,3.7422679 1.10567,3.5721653 1.360824,2.21134 2.381444,-1.275773 2.296391,0.510309 5.358249,0.08505 1.530927,-2.466494 3.146906,-3.1469076 1.02062,-3.4871133 4.422679,-0.085052 -0.340206,2.806701 0.765463,2.4664949 1.61598,4.337629 1.02062,2.72165 0.08505,2.466495 0.51031,3.827319 -5.953607,1.956186 -2.806702,2.041236 -0.765464,4.93299 1.445877,2.551546 9.951029,-0.255153 3.146909,-2.381443 1.275773,-2.296393 1.956184,-5.528351 -0.08505,-3.827319 2.636596,-3.572165 1.190723,-4.082474 2.21134,-2.976804 2.381443,-3.2319592 4.42268,1.7860825 0.340206,5.8685567 1.70103,5.103093 1.445877,3.912371 7.144332,0.08505 0.850514,-3.061855 1.530929,-5.613402 1.61598,-5.1030931 1.615977,-2.5515464 2.976806,1.6159794 1.78608,7.6546391 0.08505,7.654639 3.82732,12.162372 -0.255154,17.350515 -94.9175254,-2.976806 z"
       id="path122" />
    <path
       style="fill:none;stroke:#000000;stroke-width:0.264583px;stroke-linecap:butt;stroke-linejoin:miter;stroke-opacity:1"
       d="m 93.811853,56.219071 1.61598,-3.061856 1.190723,-5.443297 -1.190723,-1.105673 0.255156,-2.041236 0.595361,-1.786081 -0.04253,-2.466496 0.80799,-2.721649 -0.04253,-2.338917 -1.19072,-3.614692 1.10567,-1.91366 -0.59536,-2.126287 0.255154,-1.530928 1.786083,-1.61598 0.850513,-2.296391 1.36082,-1.148196 1.3183,-2.764176 0.80799,-1.488402 1.40335,0.212629 1.44588,-1.956185 -0.1701,-1.233248 1.23324,-0.765464 0.80799,-0.807989 6.88918,-0.04253 1.10567,2.21134 -1.19073,1.445876 1.61598,1.956186 0.0851,2.976804 0.25516,3.487113 2.04124,-0.08505 1.44587,1.445876 2.4665,-0.425258 0.85051,-1.275773 0.42526,-5.273196 2.8067,-1.530927 0.42526,-2.891753 1.10567,-4.507732 h 1.53093 l 1.70103,2.296392 -0.1701,4.93299 1.61598,0.255154 4.50773,-1.360825 2.38144,-4.252577 8.25,-0.170103 0.34021,48.309277 -55.1134,-0.08505 z"
       id="path129" />
    <path
       style="fill:none;stroke:#000000;stroke-width:0.264583px;stroke-linecap:butt;stroke-linejoin:miter;stroke-opacity:1"
       d="m -2.8342706,28.755411 -1.1204342,-6.43445 -0.8992129,-4.653976 -1.7905203,-3.096864 0.2931604,-7.5811034 -1.2855921,-6.25954133 -0.5423805,-7.04662847 0.4001148,-6.8183918 -1.1883879,-5.836895 -0.2992218,-4.501006 -0.3866756,-4.583585 -0.7316173,-4.743865 -2.39598,-9.375908 -9.420077,-2.112338 -9.769303,3.513384 2.504716,28.006731 2.030518,47.0797 3.796727,25.587267 14.3412907,1.630894 2.4139972,-4.834054 z"
       id="path250" />
    <path
       style="fill:none;stroke:#000000;stroke-width:0.264583px;stroke-linecap:butt;stroke-linejoin:miter;stroke-opacity:1"
       d="m 150.15132,67.337828 2.46216,-9.08976 -1.30295,-9.832676 1.98558,-13.840942 -0.74469,-14.103007 -0.89035,-13.2479659 1.99593,-7.54483721 1.82102,-7.70999519 -0.32175,-11.2221927 0.78619,-8.190845 4.00162,-14.749608 3.22944,-12.004701 2.96738,-9.274418 3.29282,-9.794269 2.91435,-5.188749 3.59507,0.747792 3.59198,18.445868 -2.08559,34.094396 -7.66257,35.445503 3.92289,24.052091 -0.35719,23.153767 -1.72353,11.110661 -8.76372,2.974033 z"
       id="path252" />
    <path
       style="fill:none;stroke:#000000;stroke-width:0.264583px;stroke-linecap:butt;stroke-linejoin:miter;stroke-opacity:1"
       d="m 149.86997,35.963934 -0.76191,-1.101982 -0.37542,-1.263354 0.17196,-1.016979 0.35942,-0.842576 0.56524,-0.540147 0.65898,0.01495 0.6875,0.632389 0.48847,0.968166 0.20777,1.153207 -0.0415,0.892329 -0.66329,1.112165 -0.41403,0.437237 -0.63241,-0.248306 z"
       id="path264" />
    <path
       style="fill:none;stroke:#000000;stroke-width:0.264583px;stroke-linecap:butt;stroke-linejoin:miter;stroke-opacity:1"
       d="m -25.97173,-49.55174 4.754766,0.581125 6.161001,-2.460143 3.523179,-8.113421 -2.102256,-7.346527 0.421165,-5.437635 4.6428975,-3.333345 -1.4193882,-7.506485 4.4475021,-1.635035 2.1397256,-6.602913 0.5760622,-4.414597 6.0339454,-5.354104 4.3660077,-7.59052 6.9861097,-0.74664 1.583913,-3.54899 7.587484,-6.86208 -1.581879,-8.01928 -5.392074,-3.48268 -8.9253777,5.31108 -1.2715862,5.42498 -8.2247916,3.96053 -4.0258391,7.59557 -10.7937734,5.11315 -4.962319,13.365786 -0.309297,9.352103 -2.464707,5.577345 -6.094693,9.436129 0.35079,10.722901 -2.7745,3.531272 z"
       id="path277" />
    <path
       style="fill:none;stroke:#000000;stroke-width:0.264583px;stroke-linecap:butt;stroke-linejoin:miter;stroke-opacity:1"
       d="m 168.47358,-83.574526 -4.53406,-3.980278 -4.08252,-11.458924 -3.89219,-12.817062 -3.6811,-4.13771 4.74161,-9.96663 -4.67377,-6.02382 -1.40673,-8.35691 -2.29259,-5.98839 -2.86612,-1.74387 -2.97293,-5.99851 8.52952,-1.57428 7.01952,8.44043 6.63125,11.66698 5.03722,15.8963 -0.8398,10.70518 3.48065,6.17619 3.37434,13.319724 3.31563,5.833489 z"
       id="path279" />
    <path
       style="fill:none;stroke:#000000;stroke-width:0.264583px;stroke-linecap:butt;stroke-linejoin:miter;stroke-opacity:1;image-rendering:optimizeSpeed"
       d="m 10.013726,-21.286341 -3.5338022,-2.604418 1.5940368,-4.229327 6.3260224,-2.117442 3.571769,0.05315 5.249832,1.609225 1.792461,5.300453 -3.249318,1.142499 -4.269825,1.127311 -4.249575,-0.233363 z"
       id="path292" />
    <path
       style="fill:none;stroke:#000000;stroke-width:0.264583px;stroke-linecap:butt;stroke-linejoin:miter;stroke-opacity:1"
       d="m 37.499036,-16.284022 -2.135161,-5.135433 2.236406,-1.667937 5.265018,0.588718 3.234131,-0.121993 2.345746,2.416615 -0.06834,4.592275 -6.125564,0.07896 z"
       id="path294" />
    <path
       style="fill:none;stroke:#000000;stroke-width:0.264583px;stroke-linecap:butt;stroke-linejoin:miter;stroke-opacity:1"
       d="m 67.914241,-2.3917611 -0.157429,-0.8529523 -1.147559,-2.9091504 -0.124524,-3.0640477 4.429784,-0.4444434 2.241468,-2.0081061 2.365994,1.055941 3.909407,0.228301 1.327769,2.2313443 -0.213114,2.8889013 -5.112652,0.6044027 -2.924337,2.1680661 z"
       id="path296" />
    <path
       style="fill:none;stroke:#000000;stroke-width:0.264583px;stroke-linecap:butt;stroke-linejoin:miter;stroke-opacity:1"
       d="m 100.48942,3.5369137 -0.43938,-4.7699527 3.11214,-3.3561247 2.41662,-2.3457437 2.90155,-0.6373077 3.20123,2.0891029 -0.93395,5.60012471 -4.13011,3.17085369 -3.74186,-0.055685 z"
       id="path298" />
    <path
       style="fill:none;stroke:#000000;stroke-width:0.264583px;stroke-linecap:butt;stroke-linejoin:miter;stroke-opacity:1"
       d="m 128.8859,4.4698665 -2.01823,-1.5611321 -1.65528,-3.08682793 1.73374,-2.18578397 3.917,-0.2819523 3.3536,3.28222362 -1.39864,2.53101468 z"
       id="path300" />
  </g>
</svg>
